<?xml version="1.0" encoding="iso-8859-1"?>
<!-- Generator: Adobe Illustrator 23.0.3, SVG Export Plug-In . SVG Version: 6.00 Build 0)  -->
<svg version="1.1" id="&#x5716;&#x5C64;_1" xmlns="http://www.w3.org/2000/svg" xmlns:xlink="http://www.w3.org/1999/xlink" x="0px"
	 y="0px" viewBox="0 0 595.276 841.89" style="enable-background:new 0 0 595.276 841.89;" xml:space="preserve">
<g>
	<g>
		<path d="M252.185,182.625c-0.24,15.814-17.023,29.96-29.055,38.18c-12.654,8.646-27.028,14.202-42.168,16.484
			c-3.171,0.478-1.824,5.297,1.329,4.821c17.069-2.574,33.386-9.346,47.19-19.735c12.273-9.236,27.453-23.227,27.704-39.751
			C257.234,179.407,252.234,179.406,252.185,182.625L252.185,182.625z"/>
	</g>
</g>
<g>
	<g>
		<path d="M250.924,205.252c8.651,9.022,21.628,12.915,33.249,16.514c13.999,4.335,28.341,7.433,42.662,10.485
			c3.138,0.669,4.48-4.15,1.329-4.821c-13.085-2.789-26.177-5.622-39.022-9.389c-11.897-3.489-25.843-7.106-34.683-16.324
			C252.228,199.389,248.696,202.928,250.924,205.252L250.924,205.252z"/>
	</g>
</g>
<g>
	<g>
		<path d="M209,236.37c0,20.955,0,41.911,0,62.866c0,3.217,5,3.223,5,0c0-20.955,0-41.911,0-62.866
			C214,233.153,209,233.148,209,236.37L209,236.37z"/>
	</g>
</g>
<g>
	<g>
		<path d="M299.858,230.505c4.058,22.359,5.442,45.043,4.218,67.731c1.553-0.421,3.106-0.841,4.659-1.262
			c-5.821-8.547-12.07-16.77-18.735-24.676c-2.076-2.463-5.598,1.089-3.536,3.536c6.393,7.584,12.37,15.466,17.953,23.665
			c1.403,2.06,4.522,1.277,4.659-1.262c1.248-23.14-0.259-46.262-4.397-69.061C304.106,226.014,299.286,227.354,299.858,230.505
			L299.858,230.505z"/>
	</g>
</g>
</svg>
