<?xml version="1.0" encoding="iso-8859-1"?>
<!-- Generator: Adobe Illustrator 23.0.3, SVG Export Plug-In . SVG Version: 6.00 Build 0)  -->
<svg version="1.1" id="&#x5716;&#x5C64;_1" xmlns="http://www.w3.org/2000/svg" xmlns:xlink="http://www.w3.org/1999/xlink" x="0px"
	 y="0px" viewBox="0 0 595.276 841.89" style="enable-background:new 0 0 595.276 841.89;" xml:space="preserve">
<path style="opacity:0.72;fill:#B5B5B6;" d="M142.357,295.944c-5.231-23.736,16.557-55.008,42-64c22.887-8.088,32.068,7.739,75,7
	c38.087-0.656,44.934-13.355,62-5c24.619,12.053,19.074,42.746,45,52c15.656,5.588,24.932-3.014,39,6
	c15.041,9.638,21.873,28.081,22,29c4.727,34.168-44.3,71.545-66,64c-22.014-7.654-10.216-58.128-36-69
	c-18.692-7.882-32.619,15.388-69,23C210.827,348.471,149.725,329.376,142.357,295.944z"/>
<path style="opacity:0.58;fill:#727171;" d="M158.697,364.259c-24.149-0.415-28.104-25.956-53.667-22.871
	c-16.954,2.046-23.173,14.453-33.11,12.439c-16.71-3.387-12.026-41.085-11.443-45.774c1.489-11.988,5.515-44.393,25.295-49.948
	c14.817-4.161,17.224,11.588,42.07,11.984c29.108,0.464,40.839-20.826,63.058-18.634c21.651,2.136,35.872,24.852,36.769,43.653
	C229.299,329.312,187.509,364.755,158.697,364.259z"/>
<path style="opacity:0.68;fill:#727171;" d="M168.861,306.826c23.376-13.684,40.161,4.268,69-9c24.086-11.082,22.016-28.039,41-32
	c25.511-5.323,53.724,20.194,67,42c12.106,19.886,24.575,57.685,9,73c-19.07,18.752-55.705-20.269-137-20
	c-41.728,0.138-66.181,10.532-74-2C136.158,346.482,148.773,318.585,168.861,306.826z"/>
</svg>
